<?xml version="1.0" encoding="UTF-8" standalone="no"?>
<!DOCTYPE svg PUBLIC "-//W3C//DTD SVG 1.1//EN" "http://www.w3.org/Graphics/SVG/1.1/DTD/svg11.dtd">
<svg width="100%" height="100%" viewBox="0 0 63 94" version="1.1" xmlns="http://www.w3.org/2000/svg" xmlns:xlink="http://www.w3.org/1999/xlink" xml:space="preserve" xmlns:serif="http://www.serif.com/" style="fill-rule:evenodd;clip-rule:evenodd;stroke-linejoin:round;stroke-miterlimit:2;">
    <g transform="matrix(1,0,0,1,-250.319,-3.04169)">
        <g transform="matrix(1,0,0,1,233.476,0)">
            <g transform="matrix(-1.59539,0,0,1.59539,299.85,-206.918)">
                <path d="M141.739,150.199C146.625,148.117 151.147,145.55 155.503,142.476C157.597,140.998 159.554,139.357 161.563,137.671C163.485,136.059 165.426,134.412 167.263,132.564C168.665,131.235 170.883,131.295 172.211,132.697C173.54,134.099 173.481,136.316 172.079,137.645C169.932,139.563 167.775,141.383 165.459,142.906C163.07,144.476 160.591,145.769 158.046,146.92C152.953,149.224 147.73,150.821 142.269,151.912C141.796,152.058 141.294,151.793 141.148,151.32C141.001,150.848 141.266,150.345 141.739,150.199Z" style="fill:rgb(255,129,112);"/>
            </g>
        </g>
        <g transform="matrix(1,0,0,1,233.476,0)">
            <g transform="matrix(-1.59539,0,0,-1.59539,299.151,311.811)">
                <path d="M142.269,151.912C148.941,150.616 154.405,149.333 160.215,147.021C161.737,146.415 163.26,145.747 164.813,144.941C166.9,143.858 168.987,142.513 171.238,141.04C172.821,139.934 173.208,137.75 172.102,136.167C170.995,134.583 168.812,134.196 167.228,135.302C165.127,136.871 163.111,138.188 161.221,139.465C159.089,140.907 157.138,142.27 155.105,143.478C150.896,145.98 146.74,148.029 141.739,150.199C141.266,150.345 141.001,150.848 141.148,151.32C141.294,151.793 141.796,152.058 142.269,151.912Z" style="fill:rgb(255,129,112);"/>
            </g>
        </g>
        <g transform="matrix(1,0,0,1,233.476,0)">
            <g transform="matrix(-1.42432,0.718731,0.718731,1.42432,166.989,-263.35)">
                <path d="M141.562,150.276C147.58,146.007 153.385,141.401 159.764,137.109C162.404,135.333 165.188,133.733 167.963,132.049C169.649,131.107 171.784,131.71 172.726,133.397C173.669,135.083 173.065,137.217 171.379,138.159C168.52,139.627 165.756,141.195 162.927,142.582C156.021,145.969 149.201,148.859 142.446,151.835C142.016,152.079 141.468,151.928 141.224,151.498C140.98,151.067 141.131,150.52 141.562,150.276Z" style="fill:rgb(255,129,112);"/>
            </g>
        </g>
    </g>
</svg>
