<?xml version="1.0" encoding="UTF-8" standalone="no"?>
<!DOCTYPE svg PUBLIC "-//W3C//DTD SVG 1.1//EN" "http://www.w3.org/Graphics/SVG/1.1/DTD/svg11.dtd">
<svg width="100%" height="100%" viewBox="0 0 63 94" version="1.1" xmlns="http://www.w3.org/2000/svg" xmlns:xlink="http://www.w3.org/1999/xlink" xml:space="preserve" xmlns:serif="http://www.serif.com/" style="fill-rule:evenodd;clip-rule:evenodd;stroke-linejoin:round;stroke-miterlimit:2;">
    <g transform="matrix(1,0,0,1,-372.146,-3.04169)">
        <g transform="matrix(1,0,0,1,355.303,0)">
            <g transform="matrix(1.59539,0,0,1.59539,-204.124,-206.918)">
                <path d="M142.269,151.912C147.73,150.821 152.953,149.224 158.046,146.92C160.591,145.769 163.07,144.476 165.459,142.906C167.775,141.383 169.932,139.563 172.079,137.645C173.481,136.316 173.54,134.099 172.211,132.697C170.883,131.295 168.665,131.235 167.263,132.564C165.426,134.412 163.485,136.059 161.563,137.671C159.554,139.357 157.597,140.998 155.503,142.476C151.147,145.55 146.625,148.117 141.739,150.199C141.266,150.345 141.001,150.848 141.148,151.32C141.294,151.793 141.796,152.058 142.269,151.912Z" style="fill:rgb(255,129,112);"/>
            </g>
        </g>
        <g transform="matrix(1,0,0,1,355.303,0)">
            <g transform="matrix(1.59539,0,0,-1.59539,-203.425,311.811)">
                <path d="M141.739,150.199C146.74,148.029 150.896,145.98 155.105,143.478C157.138,142.27 159.089,140.907 161.221,139.465C163.111,138.188 165.127,136.871 167.228,135.302C168.812,134.196 170.995,134.583 172.102,136.167C173.208,137.75 172.821,139.934 171.238,141.04C168.987,142.513 166.9,143.858 164.813,144.941C163.26,145.747 161.737,146.415 160.215,147.021C154.405,149.333 148.941,150.616 142.269,151.912C141.796,152.058 141.294,151.793 141.148,151.32C141.001,150.848 141.266,150.345 141.739,150.199Z" style="fill:rgb(255,129,112);"/>
            </g>
        </g>
        <g transform="matrix(1,0,0,1,355.303,0)">
            <g transform="matrix(1.42432,0.718731,-0.718731,1.42432,-71.2634,-263.35)">
                <path d="M142.446,151.835C149.201,148.859 156.021,145.969 162.927,142.582C165.756,141.195 168.52,139.627 171.379,138.159C173.065,137.217 173.669,135.083 172.726,133.397C171.784,131.71 169.649,131.107 167.963,132.049C165.188,133.733 162.404,135.333 159.764,137.109C153.385,141.401 147.58,146.007 141.562,150.276C141.131,150.52 140.98,151.067 141.224,151.498C141.468,151.928 142.016,152.079 142.446,151.835Z" style="fill:rgb(255,129,112);"/>
            </g>
        </g>
    </g>
</svg>
